<?xml version="1.0" encoding="utf-8"?>
<!-- Generator: Adobe Illustrator 17.0.0, SVG Export Plug-In . SVG Version: 6.00 Build 0)  -->
<!DOCTYPE svg PUBLIC "-//W3C//DTD SVG 1.1//EN" "http://www.w3.org/Graphics/SVG/1.1/DTD/svg11.dtd">
<svg version="1.1" id="Layer_1" xmlns="http://www.w3.org/2000/svg" xmlns:xlink="http://www.w3.org/1999/xlink" x="0px" y="0px"
	 width="283.46px" height="283.46px" viewBox="0 0 283.46 283.46" enable-background="new 0 0 283.46 283.46" xml:space="preserve">
<g>
	<g>
		<g>
			<polygon fill="#0D6EB7" points="138.515,34.232 75.409,104.251 78.355,93.322 138.515,21.985 			"/>
			<polygon fill="#0D6EB7" points="138.515,58.783 69.994,124.336 73.454,111.502 138.515,42.775 			"/>
			<polygon fill="#0D6EB7" points="138.515,91.975 63.563,148.19 67.683,132.907 138.515,70.162 			"/>
			<polygon fill="#0D6EB7" points="138.515,139.343 55.8,176.987 60.789,158.479 138.515,107.879 			"/>
			<polygon fill="#0D6EB7" points="138.515,212.438 46.242,212.438 52.408,189.565 138.515,163.131 			"/>
		</g>
		<g>
			<polygon fill="#0D6EB7" points="145.629,34.232 208.735,104.251 205.789,93.322 145.629,21.985 			"/>
			<polygon fill="#0D6EB7" points="145.629,58.783 214.15,124.336 210.69,111.502 145.629,42.775 			"/>
			<polygon fill="#0D6EB7" points="145.629,91.975 220.581,148.19 216.461,132.907 145.629,70.162 			"/>
			<polygon fill="#0D6EB7" points="145.629,139.343 228.344,176.987 223.355,158.479 145.629,107.879 			"/>
			<polygon fill="#0D6EB7" points="145.629,212.438 237.902,212.438 231.736,189.565 145.629,163.131 			"/>
		</g>
		<polygon fill="#F99E1C" points="18.824,226.883 138.515,229.123 138.515,253.758 13.056,251.519 		"/>
		<polygon fill="#F99E1C" points="265.32,226.883 145.629,229.123 145.629,253.758 271.088,251.519 		"/>
	</g>
</g>
</svg>
