<?xml version="1.0" encoding="utf-8"?>
<!-- Generator: Adobe Illustrator 17.0.0, SVG Export Plug-In . SVG Version: 6.00 Build 0)  -->
<!DOCTYPE svg PUBLIC "-//W3C//DTD SVG 1.1//EN" "http://www.w3.org/Graphics/SVG/1.1/DTD/svg11.dtd">
<svg version="1.1" id="Layer_1" xmlns="http://www.w3.org/2000/svg" xmlns:xlink="http://www.w3.org/1999/xlink" x="0px" y="0px"
	 width="184.25px" height="42.52px" viewBox="0 0 184.25 42.52" enable-background="new 0 0 184.25 42.52" xml:space="preserve">
<g>
	<linearGradient id="SVGID_1_" gradientUnits="userSpaceOnUse" x1="80.2153" y1="14.8755" x2="100.0518" y2="14.8755">
		<stop  offset="0" style="stop-color:#115BC4"/>
		<stop  offset="1" style="stop-color:#05BDFD"/>
	</linearGradient>
	<linearGradient id="SVGID_2_" gradientUnits="userSpaceOnUse" x1="79.2153" y1="14.7429" x2="101.0518" y2="14.7429">
		<stop  offset="0" style="stop-color:#115BC4"/>
		<stop  offset="1" style="stop-color:#05BDFD"/>
	</linearGradient>
	<path fill="url(#SVGID_1_)" stroke="url(#SVGID_2_)" stroke-width="2" stroke-miterlimit="10" d="M100.052,24.674h-2.159V8.477
		l-7.279,16.197h-1.08L82.415,8.557c0.08,0.12,0.08,0.2,0.08,0.32v0.2v15.597h-2.28V5.077h3l6.919,15.876l7.119-15.876h2.799V24.674
		z"/>
	<linearGradient id="SVGID_3_" gradientUnits="userSpaceOnUse" x1="122.6943" y1="14.8755" x2="139.4517" y2="14.8755">
		<stop  offset="0" style="stop-color:#115BC4"/>
		<stop  offset="1" style="stop-color:#05BDFD"/>
	</linearGradient>
	<linearGradient id="SVGID_4_" gradientUnits="userSpaceOnUse" x1="121.2616" y1="14.8755" x2="140.8844" y2="14.8755">
		<stop  offset="0" style="stop-color:#115BC4"/>
		<stop  offset="1" style="stop-color:#05BDFD"/>
	</linearGradient>
	<path fill="url(#SVGID_3_)" stroke="url(#SVGID_4_)" stroke-width="2" stroke-miterlimit="10" d="M139.452,24.674h-2.24
		l-1.999-5.398h-8.279l-1.999,5.398h-2.24l7.199-19.596h2.359L139.452,24.674z M134.413,17.315l-3.439-9.678l-3.479,9.678H134.413z"
		/>
	<linearGradient id="SVGID_5_" gradientUnits="userSpaceOnUse" x1="158.5337" y1="14.8758" x2="171.0913" y2="14.8758">
		<stop  offset="0" style="stop-color:#115BC4"/>
		<stop  offset="1" style="stop-color:#05BDFD"/>
	</linearGradient>
	<linearGradient id="SVGID_6_" gradientUnits="userSpaceOnUse" x1="157.5337" y1="14.8758" x2="172.0913" y2="14.8758">
		<stop  offset="0" style="stop-color:#115BC4"/>
		<stop  offset="1" style="stop-color:#05BDFD"/>
	</linearGradient>
	<path fill="url(#SVGID_5_)" stroke="url(#SVGID_6_)" stroke-width="2" stroke-miterlimit="10" d="M169.852,8.357
		c-0.6-0.68-2.2-1.6-5.079-1.6c-1.76,0-3.76,1.12-3.76,2.76c0,4.519,10.078,2.239,10.078,9.438c0,3.079-1.279,5.999-6.879,5.999
		c-3.599,0-5.039-0.72-5.679-1.36v-2.68c0.68,0.92,2.479,2.08,5.679,2.08c2.92,0,4.64-1.479,4.64-4.039
		c0-5.479-10.318-2.68-10.318-9.438c0-3.08,3.079-4.719,6.239-4.719c3.079,0,4.559,0.6,5.079,0.919V8.357z"/>
</g>
<g>
	<g>
		<g>
			<polygon fill="#006DB8" points="37.577,3.673 25.485,14.612 26.05,12.904 37.577,1.76 			"/>
			<polygon fill="#006DB8" points="37.577,7.509 24.448,17.749 25.111,15.745 37.577,5.008 			"/>
			<polygon fill="#006DB8" points="37.577,12.694 23.216,21.476 24.005,19.088 37.577,9.286 			"/>
			<polygon fill="#006DB8" points="37.577,20.094 21.728,25.975 22.684,23.083 37.577,15.179 			"/>
			<polygon fill="#006DB8" points="37.577,31.513 19.897,31.513 21.078,27.94 37.577,23.81 			"/>
		</g>
		<g>
			<polygon fill="#006DB8" points="38.94,3.673 51.032,14.612 50.467,12.904 38.94,1.76 			"/>
			<polygon fill="#006DB8" points="38.94,7.509 52.069,17.749 51.406,15.745 38.94,5.008 			"/>
			<polygon fill="#006DB8" points="38.94,12.694 53.301,21.476 52.512,19.088 38.94,9.286 			"/>
			<polygon fill="#006DB8" points="38.94,20.094 54.789,25.975 53.833,23.083 38.94,15.179 			"/>
			<polygon fill="#006DB8" points="38.94,31.513 56.62,31.513 55.439,27.94 38.94,23.81 			"/>
		</g>
		<linearGradient id="SVGID_7_" gradientUnits="userSpaceOnUse" x1="13.5382" y1="35.8688" x2="37.5771" y2="35.8688">
			<stop  offset="0" style="stop-color:#115BC4"/>
			<stop  offset="1" style="stop-color:#05BDFD"/>
		</linearGradient>
		<linearGradient id="SVGID_8_" gradientUnits="userSpaceOnUse" x1="12.2161" y1="35.8703" x2="38.5771" y2="35.8703">
			<stop  offset="0" style="stop-color:#115BC4"/>
			<stop  offset="1" style="stop-color:#05BDFD"/>
		</linearGradient>
		<polygon fill="url(#SVGID_7_)" stroke="url(#SVGID_8_)" stroke-width="2" stroke-miterlimit="10" points="14.643,33.77 
			37.577,34.119 37.577,37.968 13.538,37.618 		"/>
		<linearGradient id="SVGID_9_" gradientUnits="userSpaceOnUse" x1="38.9401" y1="35.8688" x2="62.979" y2="35.8688">
			<stop  offset="0" style="stop-color:#115BC4"/>
			<stop  offset="1" style="stop-color:#05BDFD"/>
		</linearGradient>
		<linearGradient id="SVGID_10_" gradientUnits="userSpaceOnUse" x1="37.9401" y1="35.8703" x2="64.3011" y2="35.8703">
			<stop  offset="0" style="stop-color:#115BC4"/>
			<stop  offset="1" style="stop-color:#05BDFD"/>
		</linearGradient>
		<polygon fill="url(#SVGID_9_)" stroke="url(#SVGID_10_)" stroke-width="2" stroke-miterlimit="10" points="61.874,33.77 
			38.94,34.119 38.94,37.968 62.979,37.618 		"/>
	</g>
</g>
<linearGradient id="SVGID_11_" gradientUnits="userSpaceOnUse" x1="77.625" y1="28.9858" x2="175.7372" y2="28.9858">
	<stop  offset="0" style="stop-color:#115BC4"/>
	<stop  offset="1" style="stop-color:#05BDFD"/>
</linearGradient>
<line fill="none" stroke="url(#SVGID_11_)" stroke-width="2" stroke-miterlimit="10" x1="77.625" y1="28.986" x2="175.737" y2="28.986"/>
<g>
	<path fill="#035B8C" d="M83.207,38.285h-0.647v-4.857l-2.183,4.857h-0.324l-2.135-4.833c0.024,0.035,0.024,0.06,0.024,0.096v0.06
		v4.678h-0.684v-5.877h0.9l2.075,4.762l2.135-4.762h0.839V38.285z"/>
	<path fill="#035B8C" d="M84.41,34.652c0.276-0.324,0.756-0.647,1.475-0.647c0.84,0,1.835,0.432,1.835,1.522v2.759h-0.672v-0.384
		c-0.228,0.275-0.587,0.468-1.164,0.468c-0.768,0-1.499-0.336-1.499-1.151c0.156-1.703,2.663-0.888,2.663-1.691
		c0-0.611-0.444-0.936-1.164-0.936c-0.635,0-1.067,0.349-1.319,0.72L84.41,34.652z M87.048,37.266v-0.959
		c-0.156,0.107-0.468,0.239-0.959,0.239c-0.384,0-1.031,0.18-1.031,0.672c0,0.54,0.576,0.563,0.899,0.563
		C86.497,37.781,86.856,37.542,87.048,37.266z"/>
	<path fill="#035B8C" d="M91.86,38.285v-2.83c0-0.576-0.48-0.864-1.092-0.864c-0.611,0-1.163,0.504-1.163,1.596v2.099h-0.684v-4.197
		h0.684v0.552c0.132-0.444,0.684-0.636,1.163-0.636c1.164,0,1.763,0.611,1.763,1.486v2.795H91.86z"/>
	<path fill="#035B8C" d="M96.108,34.904c-0.18-0.132-0.492-0.313-1.127-0.313c-0.396,0-0.695,0.084-0.695,0.432
		c0,0.996,2.075,0.301,2.075,2.075c0,0.66-0.276,1.271-1.499,1.271c-0.804,0-1.104-0.132-1.248-0.264v-0.768
		c0.156,0.204,0.528,0.443,1.248,0.443c0.671,0,0.911-0.155,0.911-0.684c0-1.247-2.159-0.54-2.159-2.075
		c0-0.671,0.696-1.019,1.367-1.019c0.684,0,0.972,0.084,1.127,0.168V34.904z"/>
	<path fill="#035B8C" d="M97.346,32.744h0.672v0.672h-0.672V32.744z M97.346,34.088h0.672v4.197h-0.672V34.088z"/>
	<path fill="#035B8C" d="M99.074,36.246c0-1.451,0.755-2.242,2.099-2.242c1.199,0,2.015,0.839,2.015,2.146
		c0,1.487-0.768,2.219-2.11,2.219C99.877,38.369,99.074,37.602,99.074,36.246z M102.516,36.151c0-0.924-0.527-1.56-1.343-1.56
		c-0.863,0-1.428,0.648-1.428,1.655c0,0.924,0.516,1.535,1.332,1.535C101.988,37.781,102.516,37.17,102.516,36.151z"/>
	<path fill="#035B8C" d="M107.172,38.285v-2.83c0-0.576-0.479-0.864-1.092-0.864c-0.611,0-1.163,0.504-1.163,1.596v2.099h-0.684
		v-4.197h0.684v0.552c0.132-0.444,0.684-0.636,1.163-0.636c1.164,0,1.764,0.611,1.764,1.486v2.795H107.172z"/>
	<path fill="#035B8C" d="M117.491,38.285h-0.672l-0.6-1.619h-2.482l-0.601,1.619h-0.671l2.158-5.877h0.708L117.491,38.285z
		 M115.979,36.078l-1.031-2.902l-1.044,2.902H115.979z"/>
	<path fill="#035B8C" d="M120.647,34.904c-0.18-0.132-0.491-0.313-1.127-0.313c-0.396,0-0.695,0.084-0.695,0.432
		c0,0.996,2.074,0.301,2.074,2.075c0,0.66-0.275,1.271-1.499,1.271c-0.804,0-1.104-0.132-1.247-0.264v-0.768
		c0.155,0.204,0.527,0.443,1.247,0.443c0.672,0,0.911-0.155,0.911-0.684c0-1.247-2.158-0.54-2.158-2.075
		c0-0.671,0.695-1.019,1.367-1.019c0.684,0,0.972,0.084,1.127,0.168V34.904z"/>
	<path fill="#035B8C" d="M124.308,34.904c-0.18-0.132-0.492-0.313-1.128-0.313c-0.396,0-0.695,0.084-0.695,0.432
		c0,0.996,2.075,0.301,2.075,2.075c0,0.66-0.276,1.271-1.499,1.271c-0.804,0-1.104-0.132-1.248-0.264v-0.768
		c0.156,0.204,0.528,0.443,1.248,0.443c0.671,0,0.911-0.155,0.911-0.684c0-1.247-2.159-0.54-2.159-2.075
		c0-0.671,0.696-1.019,1.367-1.019c0.684,0,0.972,0.084,1.128,0.168V34.904z"/>
	<path fill="#035B8C" d="M125.545,32.744h0.672v0.672h-0.672V32.744z M125.545,34.088h0.672v4.197h-0.672V34.088z"/>
	<path fill="#035B8C" d="M129.84,34.904c-0.18-0.132-0.492-0.313-1.128-0.313c-0.396,0-0.695,0.084-0.695,0.432
		c0,0.996,2.075,0.301,2.075,2.075c0,0.66-0.276,1.271-1.499,1.271c-0.804,0-1.104-0.132-1.248-0.264v-0.768
		c0.156,0.204,0.528,0.443,1.248,0.443c0.671,0,0.911-0.155,0.911-0.684c0-1.247-2.159-0.54-2.159-2.075
		c0-0.671,0.696-1.019,1.367-1.019c0.684,0,0.972,0.084,1.128,0.168V34.904z"/>
	<path fill="#035B8C" d="M130.573,34.088h0.852v-2.1h0.695v2.1h1.235v0.587h-1.235v2.159c0,0.684,0.204,0.899,0.732,0.899
		c0.239,0,0.407-0.06,0.503-0.18v0.684c-0.18,0.084-0.432,0.132-0.731,0.132c-0.827,0-1.199-0.576-1.199-1.535v-2.159h-0.852V34.088
		z"/>
	<path fill="#035B8C" d="M134.041,34.652c0.275-0.324,0.756-0.647,1.476-0.647c0.839,0,1.835,0.432,1.835,1.522v2.759h-0.672v-0.384
		c-0.229,0.275-0.588,0.468-1.163,0.468c-0.768,0-1.5-0.336-1.5-1.151c0.156-1.703,2.663-0.888,2.663-1.691
		c0-0.611-0.444-0.936-1.163-0.936c-0.636,0-1.068,0.349-1.319,0.72L134.041,34.652z M136.68,37.266v-0.959
		c-0.156,0.107-0.468,0.239-0.96,0.239c-0.384,0-1.031,0.18-1.031,0.672c0,0.54,0.576,0.563,0.899,0.563
		C136.128,37.781,136.487,37.542,136.68,37.266z"/>
	<path fill="#035B8C" d="M141.491,38.285v-2.83c0-0.576-0.479-0.864-1.092-0.864c-0.611,0-1.163,0.504-1.163,1.596v2.099h-0.684
		v-4.197h0.684v0.552c0.132-0.444,0.684-0.636,1.163-0.636c1.164,0,1.764,0.611,1.764,1.486v2.795H141.491z"/>
	<path fill="#035B8C" d="M142.813,34.088h0.852v-2.1h0.695v2.1h1.235v0.587h-1.235v2.159c0,0.684,0.204,0.899,0.731,0.899
		c0.24,0,0.408-0.06,0.504-0.18v0.684c-0.18,0.084-0.432,0.132-0.731,0.132c-0.828,0-1.199-0.576-1.199-1.535v-2.159h-0.852V34.088z
		"/>
	<path fill="#035B8C" d="M153.49,33.392c-0.18-0.204-0.659-0.479-1.522-0.479c-0.528,0-1.128,0.336-1.128,0.827
		c0,1.355,3.022,0.672,3.022,2.831c0,0.923-0.384,1.799-2.063,1.799c-1.08,0-1.512-0.216-1.703-0.408v-0.803
		c0.204,0.275,0.743,0.623,1.703,0.623c0.875,0,1.391-0.443,1.391-1.211c0-1.644-3.094-0.804-3.094-2.831
		c0-0.923,0.923-1.415,1.871-1.415c0.923,0,1.367,0.18,1.522,0.276V33.392z"/>
	<path fill="#035B8C" d="M154.98,39.868c0.012,0.012,0.048,0.012,0.084,0.012c0.455,0,0.684-0.071,0.887-0.6l0.349-0.899
		l-1.644-4.293h0.756l1.247,3.622l1.319-3.622h0.72l-1.967,5.049c-0.348,0.888-0.852,1.331-1.499,1.331
		c-0.181,0-0.288,0-0.396-0.036L154.98,39.868z"/>
	<path fill="#035B8C" d="M161.723,34.904c-0.18-0.132-0.492-0.313-1.128-0.313c-0.396,0-0.695,0.084-0.695,0.432
		c0,0.996,2.075,0.301,2.075,2.075c0,0.66-0.276,1.271-1.499,1.271c-0.804,0-1.104-0.132-1.248-0.264v-0.768
		c0.156,0.204,0.528,0.443,1.248,0.443c0.671,0,0.911-0.155,0.911-0.684c0-1.247-2.159-0.54-2.159-2.075
		c0-0.671,0.696-1.019,1.367-1.019c0.684,0,0.972,0.084,1.128,0.168V34.904z"/>
	<path fill="#035B8C" d="M162.456,34.088h0.852v-2.1h0.696v2.1h1.235v0.587h-1.235v2.159c0,0.684,0.203,0.899,0.731,0.899
		c0.239,0,0.407-0.06,0.504-0.18v0.684c-0.181,0.084-0.432,0.132-0.732,0.132c-0.827,0-1.199-0.576-1.199-1.535v-2.159h-0.852
		V34.088z"/>
	<path fill="#035B8C" d="M169.522,36.391h-3.046c0,1.007,0.587,1.391,1.391,1.391c0.72,0,1.092-0.228,1.344-0.42v0.588
		c-0.252,0.192-0.624,0.42-1.344,0.42c-1.199,0-2.074-0.647-2.074-2.171c0-1.295,0.827-2.194,1.942-2.194s1.787,0.659,1.787,2.015
		V36.391z M168.839,35.803c-0.036-0.815-0.432-1.212-1.104-1.212s-1.151,0.432-1.259,1.212H168.839z"/>
	<path fill="#035B8C" d="M176.434,38.285v-2.83c0-0.576-0.48-0.864-1.092-0.864s-1.163,0.504-1.163,1.596v2.099h-0.684v-2.83
		c0-0.576-0.479-0.864-1.092-0.864c-0.611,0-1.163,0.504-1.163,1.596v2.099h-0.684v-4.197h0.684v0.552
		c0.132-0.444,0.684-0.636,1.163-0.636c0.792,0,1.319,0.239,1.571,0.719c0.252-0.443,0.647-0.719,1.367-0.719
		c1.163,0,1.763,0.611,1.763,1.486v2.795H176.434z"/>
</g>
</svg>
